<?xml version="1.0" standalone="no"?>
<!DOCTYPE svg PUBLIC "-//W3C//DTD SVG 20010904//EN"
 "http://www.w3.org/TR/2001/REC-SVG-20010904/DTD/svg10.dtd">
<svg version="1.0" xmlns="http://www.w3.org/2000/svg"
 width="100%" height="100%" viewBox="0 0 383.000000 114.000000"
 preserveAspectRatio="xMidYMid meet">

<g transform="translate(0.000000,114.000000) scale(0.10000,-0.10000)"
fill="#000000" stroke="none">
<path d="M557 1094 c-4 -4 -7 -41 -7 -81 0 -55 3 -74 13 -71 7 3 13 28 15 66
3 60 -7 100 -21 86z"/>
<path d="M290 1010 c0 -13 59 -118 70 -125 23 -14 15 17 -18 73 -34 58 -52 76
-52 52z"/>
<path d="M786 958 c-21 -35 -33 -65 -28 -70 8 -8 82 103 82 123 0 24 -21 3
-54 -53z"/>
<path d="M435 841 c-95 -44 -164 -129 -186 -229 l-10 -49 -76 -5 c-48 -3 -78
-10 -85 -19 -5 -8 -7 -57 -4 -114 5 -84 10 -109 36 -161 36 -74 101 -136 178
-172 55 -26 64 -27 262 -30 201 -3 206 -3 272 23 92 36 149 89 195 181 35 71
37 81 37 174 1 54 -2 101 -6 105 -3 4 -42 9 -86 12 l-80 6 -6 41 c-32 202
-256 323 -441 237z m275 -35 c56 -37 87 -71 115 -126 43 -87 40 -140 -9 -140
-63 0 -190 -112 -231 -203 l-23 -52 -20 45 c-11 25 -34 64 -51 88 -37 51 -135
117 -187 127 -36 6 -36 7 -32 49 10 88 75 178 161 221 47 24 60 26 143 23 81
-3 97 -7 134 -32z m324 -317 c9 -55 -10 -162 -39 -218 -31 -61 -108 -135 -168
-161 -49 -22 -172 -38 -203 -26 -15 6 -15 9 7 32 37 40 76 57 116 49 27 -5 34
-3 31 7 -3 7 -14 14 -26 16 -31 5 -27 26 10 57 28 23 39 27 80 23 26 -3 48 -2
48 1 0 13 -24 31 -42 31 -25 0 -23 9 14 47 33 34 32 59 -1 29 -18 -17 -19 -16
-26 13 -11 50 -33 39 -28 -12 5 -39 1 -48 -27 -80 -36 -41 -50 -46 -50 -18 0
20 -23 45 -33 35 -3 -3 -2 -17 3 -30 6 -15 6 -34 -1 -51 -11 -29 -97 -123
-112 -123 -17 0 0 143 23 204 54 141 209 231 375 218 41 -4 43 -5 49 -43z
m-678 1 c55 -28 78 -47 116 -97 26 -35 52 -80 58 -100 16 -55 24 -169 13 -176
-6 -4 -36 21 -68 54 -56 59 -57 61 -51 105 6 50 -11 62 -20 14 -4 -16 -10 -30
-13 -30 -13 0 -69 65 -75 86 -4 12 -2 33 3 47 7 17 7 28 0 32 -5 4 -14 -7 -20
-24 -11 -32 -23 -39 -34 -21 -3 6 -10 10 -16 10 -19 0 -8 -24 24 -51 l32 -28
-32 -11 c-50 -18 -43 -39 11 -33 37 5 50 1 80 -22 40 -31 42 -47 6 -55 -13 -3
-25 -11 -28 -18 -3 -9 8 -10 40 -6 38 5 48 2 86 -27 59 -46 55 -59 -16 -59
-130 0 -253 70 -309 176 -36 67 -58 177 -47 237 l6 39 93 -4 c81 -3 101 -8
161 -38z"/>
<path d="M595 750 c3 -5 23 -14 45 -20 43 -12 78 -49 87 -92 7 -38 23 -46 23
-13 0 42 -29 93 -65 115 -33 20 -101 28 -90 10z"/>
<path d="M90 821 c0 -10 113 -81 129 -81 27 0 6 21 -53 54 -68 38 -76 41 -76
27z"/>
<path d="M963 794 c-57 -32 -79 -54 -54 -54 19 0 131 72 125 81 -7 11 1 14
-71 -27z"/>
<path d="M1278 684 c-23 -22 -6 -34 50 -34 70 0 85 -9 80 -46 -3 -28 -4 -29
-70 -32 l-68 -3 0 -53 c0 -57 4 -67 26 -59 8 3 14 19 14 39 0 33 1 34 40 34
21 0 50 5 64 11 47 22 53 94 12 128 -18 15 -137 27 -148 15z"/>
<path d="M1533 683 c-9 -3 -13 -36 -13 -113 0 -91 3 -109 17 -114 29 -11 34 8
31 119 -3 105 -8 119 -35 108z"/>
<path d="M1822 678 c-12 -16 -62 -133 -62 -148 0 -5 8 -10 19 -10 13 0 25 15
39 51 12 28 26 48 31 45 9 -6 46 -106 43 -116 -1 -3 -37 -7 -79 -10 -60 -4
-78 -8 -78 -20 0 -12 19 -16 99 -18 55 -1 106 0 113 2 14 6 -1 53 -57 174 -28
61 -47 75 -68 50z"/>
<path d="M2035 680 c-4 -6 11 -34 32 -63 22 -29 56 -75 76 -103 38 -53 64 -71
79 -56 5 5 7 58 6 118 -3 94 -5 109 -20 112 -16 3 -18 -6 -18 -73 0 -44 -4
-75 -9 -73 -6 2 -34 34 -63 72 -55 72 -71 85 -83 66z"/>
<path d="M2300 670 c0 -13 7 -20 20 -20 13 0 20 7 20 20 0 13 -7 20 -20 20
-13 0 -20 -7 -20 -20z"/>
<path d="M2375 677 c-3 -7 -4 -60 -3 -118 3 -89 5 -104 20 -107 15 -3 18 8 20
95 l3 98 38 3 c30 3 37 7 35 20 -4 22 -105 31 -113 9z"/>
<path d="M2560 671 c0 -19 5 -21 59 -21 41 0 65 -5 75 -16 19 -18 19 -20 6
-45 -9 -16 -22 -19 -76 -19 l-65 0 3 -57 c2 -44 7 -58 18 -58 10 0 16 12 18
38 3 37 4 37 47 37 57 0 98 33 98 79 0 52 -29 73 -112 79 -67 4 -71 4 -71 -17z"/>
<path d="M2813 674 c-3 -8 -3 -49 -1 -91 5 -70 8 -79 37 -105 17 -15 36 -28
41 -28 16 0 12 40 -4 46 -22 8 -36 60 -36 130 0 51 -3 64 -15 64 -9 0 -18 -7
-22 -16z"/>
<path d="M2983 683 c-9 -3 -13 -30 -13 -84 0 -67 -3 -82 -20 -96 -21 -18 -27
-53 -10 -53 5 0 24 13 42 29 32 28 32 30 33 116 0 86 -5 99 -32 88z"/>
<path d="M3104 677 c-2 -7 -3 -60 -2 -118 2 -84 6 -104 18 -104 12 0 16 21 18
118 2 101 0 117 -13 117 -9 0 -18 -6 -21 -13z"/>
<path d="M3593 683 c-7 -2 -13 -11 -13 -19 0 -11 18 -14 85 -14 78 0 85 2 85
20 0 18 -6 20 -72 19 -40 0 -79 -3 -85 -6z"/>
<path d="M3336 658 c-33 -46 -9 -81 70 -104 58 -17 74 -38 44 -56 -11 -7 -20
-21 -20 -31 0 -14 5 -17 23 -12 24 7 57 41 57 59 0 27 -33 55 -83 71 -69 23
-76 30 -49 55 12 12 22 25 22 30 0 19 -49 10 -64 -12z"/>
<path d="M3430 668 c1 -20 36 -58 54 -58 22 0 20 33 -2 53 -22 20 -52 22 -52
5z"/>
<path d="M3582 573 c3 -15 16 -18 81 -21 72 -3 77 -1 77 18 0 18 -6 20 -81 20
-71 0 -80 -2 -77 -17z"/>
<path d="M3323 524 c-8 -21 7 -46 38 -61 38 -19 44 1 13 41 -32 40 -42 44 -51
20z"/>
<path d="M2020 496 c0 -20 6 -36 14 -39 20 -8 26 2 26 40 0 26 -4 33 -20 33
-16 0 -20 -7 -20 -34z"/>
<path d="M1590 476 c0 -19 33 -29 70 -21 51 11 37 35 -20 35 -37 0 -50 -4 -50
-14z"/>
<path d="M3170 475 c0 -18 40 -29 69 -20 40 12 24 35 -24 35 -33 0 -45 -4 -45
-15z"/>
<path d="M3582 473 c3 -15 16 -18 86 -21 77 -3 82 -2 82 18 0 19 -6 20 -86 20
-76 0 -85 -2 -82 -17z"/>
</g>
</svg>
