<?xml version="1.0" standalone="no"?>
<!DOCTYPE svg PUBLIC "-//W3C//DTD SVG 20010904//EN"
 "http://www.w3.org/TR/2001/REC-SVG-20010904/DTD/svg10.dtd">
<svg version="1.0" xmlns="http://www.w3.org/2000/svg"
 width="379.000000pt" height="225.000000pt" viewBox="0 0 379.000000 225.000000"
 preserveAspectRatio="xMidYMid meet">

<g transform="translate(0.000000,225.000000) scale(0.100000,-0.100000)"
fill="#000000" stroke="none">
<path d="M1877 2193 c-4 -3 -7 -57 -7 -120 0 -90 3 -113 14 -113 21 0 26 23
26 125 0 65 -4 96 -13 104 -8 6 -17 8 -20 4z"/>
<path d="M1476 2082 c-8 -13 105 -202 120 -202 25 0 15 29 -38 120 -49 83 -69
103 -82 82z"/>
<path d="M2263 2078 c-5 -7 -31 -50 -58 -96 -35 -62 -45 -86 -36 -95 7 -7 14
-7 20 -1 19 19 111 178 111 191 0 17 -24 17 -37 1z"/>
<path d="M1830 1859 c-215 -30 -383 -195 -408 -400 l-7 -54 -90 -2 c-133 -3
-152 -8 -160 -44 -12 -54 -6 -213 10 -274 55 -212 200 -356 410 -409 87 -22
514 -21 605 1 264 64 429 280 430 559 0 104 -8 142 -32 155 -10 6 -65 10 -122
11 l-103 0 -12 68 c-45 248 -278 423 -521 389z m206 -60 c63 -24 162 -94 193
-137 39 -56 82 -160 88 -214 l5 -54 -43 -13 c-166 -49 -315 -181 -365 -324 -8
-23 -17 -49 -20 -57 -3 -9 -17 14 -33 57 -63 161 -194 279 -359 323 -24 6 -46
18 -49 25 -8 22 16 113 48 181 35 75 123 160 203 198 103 49 226 54 332 15z
m-543 -459 c223 -69 366 -266 371 -510 0 -43 -3 -82 -7 -86 -9 -10 -143 120
-163 158 -17 32 -18 81 -3 110 8 14 8 23 0 31 -16 16 -39 -9 -47 -49 -3 -19
-9 -34 -13 -34 -3 0 -27 22 -53 49 -51 53 -64 85 -54 129 13 50 11 67 -4 67
-9 0 -21 -19 -31 -48 -15 -47 -16 -47 -34 -27 -10 11 -24 20 -32 20 -25 0 -13
-26 32 -70 25 -24 45 -47 45 -51 0 -3 -17 -9 -39 -13 -43 -7 -70 -31 -54 -47
8 -8 17 -8 31 0 29 15 88 14 120 -3 15 -8 44 -32 65 -53 l37 -39 -45 -12 c-42
-11 -66 -34 -51 -49 3 -3 24 0 46 7 57 19 104 2 164 -59 28 -28 46 -54 42 -58
-13 -14 -158 -6 -226 12 -187 48 -319 177 -376 364 -19 62 -28 187 -17 236 7
33 14 41 38 47 47 11 191 -1 258 -22z m1078 14 c12 -7 11 -198 -2 -254 -18
-80 -80 -191 -141 -252 -62 -62 -164 -117 -258 -138 -61 -15 -194 -19 -206 -7
-4 4 14 30 42 58 59 60 108 79 160 60 18 -7 38 -10 44 -6 19 12 -3 35 -46 48
l-44 13 50 49 c49 48 53 50 108 50 31 0 65 -4 75 -9 13 -6 17 -4 17 11 0 21
-37 43 -70 43 -29 0 -25 11 25 60 25 24 45 50 45 57 0 18 -30 16 -52 -3 -16
-16 -18 -15 -23 2 -11 35 -30 67 -42 72 -10 3 -11 -14 -7 -70 l6 -73 -55 -53
-55 -54 -13 43 c-9 28 -21 45 -33 47 -16 4 -18 0 -10 -25 5 -15 8 -47 8 -71 0
-40 -5 -47 -84 -127 -46 -46 -87 -82 -92 -79 -15 9 -8 130 12 209 29 115 62
178 127 246 78 82 202 143 328 163 36 5 173 -2 186 -10z"/>
<path d="M1934 1689 c-9 -15 14 -29 47 -29 64 0 142 -83 151 -160 2 -14 10
-26 21 -28 43 -8 6 118 -49 170 -52 48 -152 76 -170 47z"/>
<path d="M1192 1783 c4 -19 177 -122 196 -116 29 12 5 33 -109 96 -73 41 -92
45 -87 20z"/>
<path d="M2468 1749 c-81 -48 -110 -79 -73 -79 18 0 177 88 187 103 8 14 1 27
-15 27 -7 0 -51 -23 -99 -51z"/>
<path d="M54 425 c-15 -37 2 -45 94 -45 95 0 122 -12 122 -57 0 -39 -30 -52
-125 -55 l-90 -3 0 -85 c0 -84 0 -85 25 -85 23 0 25 4 30 55 l5 55 78 5 c73 5
81 7 108 38 23 26 29 42 29 78 0 39 -5 51 -34 80 l-34 34 -101 0 c-81 0 -103
-3 -107 -15z"/>
<path d="M434 427 c-2 -7 -3 -85 -2 -172 l3 -160 28 -3 27 -3 0 175 0 176 -25
0 c-14 0 -28 -6 -31 -13z"/>
<path d="M849 393 c-53 -117 -79 -188 -75 -200 7 -17 40 -17 54 0 6 6 22 42
37 80 15 37 30 67 34 67 13 0 84 -168 76 -179 -4 -7 -49 -11 -115 -11 -99 0
-110 -2 -120 -20 -6 -11 -8 -25 -5 -30 4 -6 74 -10 171 -10 143 0 164 2 164
16 0 8 -30 87 -67 175 -68 158 -68 159 -100 159 -29 0 -34 -5 -54 -47z"/>
<path d="M1170 430 c0 -5 27 -47 60 -92 181 -252 173 -243 205 -243 l30 0 3
173 2 172 -30 0 -30 0 0 -110 c0 -60 -4 -110 -9 -110 -5 0 -46 49 -90 110 -72
98 -84 110 -111 110 -16 0 -30 -4 -30 -10z"/>
<path d="M1570 409 c0 -28 2 -30 33 -27 27 2 33 8 35 31 3 25 1 27 -32 27 -33
0 -36 -2 -36 -31z"/>
<path d="M1680 265 l0 -175 30 0 29 0 3 143 3 142 53 3 c50 3 52 4 52 33 l0
29 -85 0 -85 0 0 -175z"/>
<path d="M1952 413 l3 -28 93 -3 c86 -3 93 -4 109 -29 15 -23 15 -28 2 -52
-14 -25 -20 -26 -109 -31 l-95 -5 0 -85 c0 -84 0 -85 25 -85 23 0 25 4 30 55
l5 55 78 6 c67 4 81 9 105 32 23 23 27 36 27 83 0 50 -3 58 -33 85 -31 28 -35
29 -138 29 l-105 0 3 -27z"/>
<path d="M2330 325 c0 -124 10 -164 51 -202 13 -12 36 -25 52 -28 24 -6 27 -5
27 19 0 17 -11 37 -32 55 l-33 29 -3 121 -4 121 -29 0 -29 0 0 -115z"/>
<path d="M2569 319 l-4 -121 -33 -27 c-33 -28 -46 -81 -19 -81 23 0 77 40 97
72 17 28 20 51 20 156 l0 122 -29 0 -29 0 -3 -121z"/>
<path d="M2755 428 c-3 -8 -4 -86 -3 -173 3 -156 4 -160 25 -163 37 -5 44 25
41 190 l-3 153 -28 3 c-16 2 -29 -2 -32 -10z"/>
<path d="M3110 412 c-67 -57 -36 -137 63 -162 86 -22 112 -35 115 -58 3 -18
-3 -26 -27 -35 -24 -9 -31 -17 -31 -39 0 -22 5 -28 20 -28 61 0 114 64 103
123 -7 35 -36 54 -132 86 -61 21 -77 30 -79 48 -3 17 3 24 22 29 20 5 26 12
26 35 0 24 -4 29 -23 29 -12 0 -38 -13 -57 -28z"/>
<path d="M3230 420 c0 -24 71 -100 93 -100 40 0 16 80 -32 104 -41 22 -61 20
-61 -4z"/>
<path d="M3464 425 c-16 -40 0 -45 131 -45 l125 0 0 30 0 30 -125 0 c-102 0
-127 -3 -131 -15z"/>
<path d="M3464 285 c-15 -39 1 -45 121 -45 l115 0 0 30 0 30 -115 0 c-94 0
-117 -3 -121 -15z"/>
<path d="M3065 210 c-9 -15 21 -77 47 -94 12 -8 35 -18 51 -21 25 -7 27 -5 27
22 0 22 -7 33 -25 41 -14 7 -30 23 -35 37 -10 26 -52 36 -65 15z"/>
<path d="M1172 153 c3 -54 5 -58 28 -58 24 0 25 3 25 55 0 53 -1 55 -28 58
l-28 3 3 -58z"/>
<path d="M542 151 c-8 -4 -12 -19 -10 -32 3 -22 7 -24 68 -24 61 0 65 2 68 24
2 13 -2 28 -10 32 -17 11 -99 11 -116 0z"/>
<path d="M2862 151 c-8 -4 -12 -19 -10 -32 3 -22 7 -24 68 -24 61 0 65 2 68
24 2 13 -2 28 -10 32 -17 11 -99 11 -116 0z"/>
<path d="M3465 140 c-3 -6 -3 -19 0 -30 6 -19 15 -20 131 -20 l124 0 0 30 0
30 -124 0 c-73 0 -127 -4 -131 -10z"/>
</g>
</svg>
