<?xml version="1.0" standalone="no"?>
<!DOCTYPE svg PUBLIC "-//W3C//DTD SVG 20010904//EN"
 "http://www.w3.org/TR/2001/REC-SVG-20010904/DTD/svg10.dtd">
<svg version="1.0" xmlns="http://www.w3.org/2000/svg"
 width="100%" height="100%" viewBox="0 0 150.000000 150.000000"
 preserveAspectRatio="xMidYMid meet">

<g transform="translate(0.000000,131.000000) scale(0.110000,-0.110000)"
fill="#40E0D0" stroke="none">
<path d="M677 1173 c-4 -3 -7 -39 -7 -80 0 -58 3 -73 15 -73 12 0 15 14 15 68
0 65 -9 99 -23 85z"/>
<path d="M400 1096 c0 -8 73 -126 81 -131 4 -3 10 -2 13 3 8 13 -64 132 -80
132 -8 0 -14 -2 -14 -4z"/>
<path d="M903 1041 c-34 -61 -40 -81 -24 -81 10 0 81 113 81 129 0 29 -28 5
-57 -48z"/>
<path d="M566 925 c-103 -42 -181 -138 -201 -246 l-7 -36 -75 -5 c-48 -3 -78
-10 -84 -19 -17 -25 -4 -189 20 -251 44 -114 163 -207 286 -226 33 -5 130 -8
215 -6 130 2 164 5 211 23 109 41 190 123 226 226 18 51 25 226 11 241 -5 4
-44 9 -88 12 l-80 5 0 31 c0 52 -52 148 -106 194 -96 83 -216 103 -328 57z
m249 -38 c59 -30 95 -66 125 -125 29 -55 39 -132 18 -132 -8 0 -42 -14 -75
-30 -70 -35 -146 -111 -174 -175 -11 -25 -23 -45 -27 -45 -4 0 -16 21 -26 48
-37 89 -127 164 -248 205 -13 5 -16 14 -11 44 14 92 98 195 186 227 63 23 169
16 232 -17z m-352 -310 c77 -35 149 -110 177 -184 25 -68 38 -177 22 -187 -7
-4 -32 12 -56 34 -51 47 -73 98 -57 129 15 26 14 31 -4 31 -9 0 -20 -11 -25
-25 -12 -33 -23 -32 -55 7 -23 27 -26 39 -22 75 6 52 -9 67 -24 24 -11 -32
-23 -39 -34 -21 -3 6 -10 10 -16 10 -17 0 -9 -26 16 -48 14 -12 25 -26 25 -31
0 -5 -11 -12 -25 -15 -14 -4 -25 -12 -25 -20 0 -10 12 -12 48 -9 43 4 50 2 80
-30 l34 -35 -31 -10 c-48 -17 -38 -32 17 -26 45 6 49 4 85 -34 38 -39 38 -40
15 -45 -37 -10 -144 9 -196 34 -114 56 -180 159 -189 299 -8 114 -9 113 95
108 67 -3 100 -10 145 -31z m683 7 c4 -14 4 -57 0 -94 -17 -186 -134 -304
-321 -324 -37 -4 -66 -2 -75 4 -13 9 -8 16 25 46 36 32 45 35 83 31 47 -5 55
7 17 25 -32 15 -32 21 7 53 28 23 39 27 80 23 36 -4 48 -2 48 9 0 7 -13 16
-30 20 -16 3 -30 8 -30 11 0 3 14 21 32 39 33 34 32 56 -2 35 -17 -10 -20 -9
-26 13 -3 14 -12 25 -20 25 -11 0 -13 -9 -8 -38 5 -34 2 -44 -26 -75 -38 -44
-47 -46 -56 -12 -3 14 -13 25 -21 25 -10 0 -12 -6 -7 -22 16 -46 6 -70 -47
-124 -29 -30 -57 -54 -61 -54 -13 0 -9 91 6 148 44 164 173 260 353 261 70 1
73 0 79 -25z"/>
<path d="M715 831 c-3 -6 11 -13 30 -17 43 -8 91 -53 100 -94 9 -42 25 -48 25
-9 0 43 -33 93 -74 113 -38 18 -72 21 -81 7z"/>
<path d="M210 898 c0 -13 109 -78 129 -78 26 0 7 20 -50 54 -65 39 -79 43 -79
24z"/>
<path d="M1078 874 c-52 -32 -73 -54 -49 -54 17 0 124 65 123 75 -1 18 -17 13
-74 -21z"/>
</g>
</svg>
